<svg width="30" height="36" viewBox="0 0 30 36" fill="none" xmlns="http://www.w3.org/2000/svg">
<path d="M13.5417 25.8547H15.625V14.7427H13.5417V25.8567V25.8547ZM14.5833 11.6428C14.9472 11.6428 15.2514 11.5268 15.4958 11.2949C15.7417 11.0629 15.8646 10.7759 15.8646 10.4339C15.8646 10.0906 15.7417 9.80291 15.4958 9.57096C15.2514 9.339 14.9472 9.22303 14.5833 9.22303C14.2194 9.22303 13.9153 9.339 13.6708 9.57096C13.425 9.80291 13.3021 10.0906 13.3021 10.4339C13.3021 10.7759 13.425 11.0629 13.6708 11.2949C13.9153 11.5268 14.2194 11.6428 14.5833 11.6428ZM14.5833 35.1564C10.3986 33.9835 6.92153 31.5913 4.15208 27.9797C1.38403 24.3667 0 20.2971 0 15.7707V5.14029L14.5833 0L29.1667 5.14029V15.7707C29.1667 20.2971 27.7826 24.3661 25.0146 27.9777C22.2451 31.5906 18.7681 33.9835 14.5833 35.1564ZM14.5833 33.0688C18.1944 31.9877 21.1806 29.8254 23.5417 26.5821C25.9028 23.3387 27.0833 19.7349 27.0833 15.7707V6.48285L14.5833 2.09936L2.08333 6.48285V15.7707C2.08333 19.7349 3.26389 23.3387 5.625 26.5821C7.98611 29.8254 10.9722 31.9877 14.5833 33.0688Z" fill="#C10000"/>
</svg>
