<svg width="50" height="58" viewBox="0 0 50 58" fill="none" xmlns="http://www.w3.org/2000/svg">
<g id="noto-v1:cat-face">
<path id="Vector" d="M49.0117 38.6198L45.7813 37.9519C45.8203 37.1272 45.8164 36.2935 45.7813 35.4598L49.0625 34.8995C49.1708 34.8813 49.2748 34.8388 49.3688 34.7744C49.4627 34.71 49.5447 34.625 49.6099 34.5243C49.6752 34.4235 49.7226 34.309 49.7493 34.1873C49.776 34.0655 49.7816 33.939 49.7656 33.8147C49.6992 33.2948 49.2735 32.9362 48.8203 33.0079L45.625 33.5548C45.2735 30.8743 44.375 28.2029 43.0156 25.7959C43.4258 21.3046 44.211 9.13054 41.0274 6.6787C38.4883 4.7244 32.4492 11.9768 30.5039 14.5811C30.0547 15.1817 29.6446 15.724 29.2696 16.2171C27.9102 15.9795 26.5274 15.8496 25.1485 15.8496C23.7695 15.8451 22.3906 15.9795 21.0313 16.2171C20.6563 15.724 20.2461 15.1817 19.7969 14.5811C17.8516 11.9768 11.8125 4.7244 9.27736 6.6787C6.09377 9.13054 6.88283 21.3046 7.28908 25.7959C5.93361 28.1984 5.02736 30.8743 4.67971 33.5548L1.48439 33.0079C1.03127 32.9362 0.605488 33.2903 0.535175 33.8147C0.464863 34.3347 0.781269 34.8233 1.23439 34.8995L4.51564 35.4598C4.48049 36.2935 4.47658 37.1272 4.51564 37.9519L1.28908 38.6198C1.08351 38.6611 0.898958 38.7896 0.772006 38.9796C0.645054 39.1697 0.584962 39.4076 0.603635 39.6461C0.622309 39.8847 0.718387 40.1064 0.872831 40.2675C1.02728 40.4286 1.22882 40.5172 1.43752 40.5158C1.48439 40.5158 1.53518 40.5114 1.58596 40.5024L4.68752 39.8614C4.81643 40.8027 5.00393 41.7305 5.27346 42.6315L2.74221 43.5504C2.53207 43.6282 2.35717 43.798 2.25551 44.0229C2.15384 44.2478 2.13362 44.5097 2.19924 44.7516C2.26617 44.9935 2.41402 45.1949 2.61031 45.3117C2.80661 45.4286 3.03529 45.4512 3.24611 45.3747L5.92189 44.402C6.69533 46.1456 7.82814 47.7503 9.42971 49.1219C11.793 51.1434 14.7305 52.515 17.7617 53.2591C18.9102 53.5415 21.8867 54.2004 25.0078 54.2004C28.1289 54.2004 31.3946 53.5415 32.5469 53.2591C35.5742 52.515 38.5156 51.1434 40.8789 49.1219C42.4805 47.7503 43.6133 46.1456 44.3867 44.402L47.0586 45.3747C47.2694 45.4512 47.4981 45.4286 47.6944 45.3117C47.8907 45.1949 48.0386 44.9935 48.1055 44.7516C48.2461 44.2496 48.0039 43.7117 47.5664 43.5504L45.0352 42.627C45.3047 41.7305 45.4961 40.8027 45.6211 39.8569L48.7266 40.4979C48.944 40.5413 49.1675 40.4847 49.3488 40.3404C49.53 40.1961 49.6545 39.9757 49.6953 39.7269C49.7285 39.4767 49.6758 39.2215 49.5483 39.015C49.4208 38.8085 49.2285 38.6669 49.0117 38.6198Z" fill="#F3C08B"/>
<path id="Vector_2" d="M27.7148 46.2532C27.7969 46.4594 27.6484 46.7911 27.6055 46.9794C27.5508 47.2169 27.5 47.45 27.4375 47.6786C27.1406 48.8082 26.6328 49.866 25.543 50.1125C24.5352 50.3411 23.5664 49.5522 23.1875 48.5078C23.0469 48.1268 22.9375 47.7324 22.8203 47.3424C22.7578 47.1273 22.6953 46.9121 22.6367 46.7015C22.5938 46.5491 22.4805 46.307 22.4961 46.1501C23.0508 46.1098 23.6953 45.8229 24.1719 45.5002C24.3281 45.3926 24.5039 45.3344 24.6484 45.2044C24.7773 45.0878 24.8594 44.922 25.0234 44.8637C25.1875 45.0654 25.4648 45.1775 25.668 45.3344C25.9141 45.5226 26.1641 45.6885 26.4297 45.8319C26.6758 45.9664 26.9688 45.9664 27.2227 46.0426C27.3555 46.0829 27.5781 46.0605 27.6758 46.1905C27.6953 46.2084 27.707 46.2263 27.7148 46.2532Z" fill="#ED6C30"/>
<g id="Group">
<path id="Vector_3" d="M18.3281 36.3383C18.3281 38.3957 17.0352 40.0586 15.4453 40.0586C13.8555 40.0586 12.5625 38.3912 12.5625 36.3383C12.5625 34.2764 13.8555 32.6135 15.4453 32.6135C17.0352 32.609 18.3281 34.2764 18.3281 36.3383ZM31.7422 36.3383C31.7422 38.3957 33.0312 40.0586 34.625 40.0586C36.2148 40.0586 37.5078 38.3912 37.5078 36.3383C37.5078 34.2764 36.2148 32.6135 34.625 32.6135C33.0352 32.609 31.7422 34.2764 31.7422 36.3383ZM25.1875 45.4195C24.8867 45.4195 24.6445 45.1416 24.6445 44.7965V41.1434C24.6445 40.7982 24.8867 40.5203 25.1875 40.5203C25.4883 40.5203 25.7305 40.7982 25.7305 41.1434V44.7965C25.7305 45.1416 25.4883 45.4195 25.1875 45.4195Z" fill="#2F2F2F"/>
<path id="Vector_4" d="M22.457 46.8852C22.2891 46.8852 22.1094 46.8763 21.9258 46.8583C19.7148 46.6342 18.7422 44.6665 18.5351 43.6535C18.4954 43.4556 18.5257 43.2476 18.6194 43.0753C18.7132 42.903 18.8627 42.7805 19.0351 42.7346C19.1203 42.7113 19.2086 42.7076 19.2951 42.7237C19.3815 42.7397 19.4643 42.7752 19.5387 42.8281C19.6132 42.881 19.6777 42.9503 19.7287 43.0319C19.7797 43.1136 19.8162 43.206 19.8359 43.3039C19.8555 43.398 20.2695 45.1506 22.043 45.3344C23.8984 45.5271 24.6172 44.411 24.6484 44.3617C24.8633 44.021 25.2734 43.9359 25.5742 44.1734C25.875 44.411 25.9531 44.8772 25.75 45.2268C25.707 45.2985 24.7461 46.8852 22.457 46.8852Z" fill="#2F2F2F"/>
<path id="Vector_5" d="M27.9375 46.8852C25.6485 46.8852 24.6875 45.2985 24.6446 45.2267C24.4375 44.8771 24.5196 44.3975 24.8242 44.1599C25.1328 43.9224 25.5469 44.0165 25.7539 44.3661C25.7774 44.402 26.5078 45.5181 28.3516 45.3298C30.1602 45.1461 30.5547 43.3218 30.5586 43.3038C30.6446 42.8914 31.0039 42.636 31.3594 42.7301C31.7188 42.8287 31.9414 43.2366 31.8594 43.649C31.6524 44.6575 30.6758 46.6297 28.4688 46.8538C28.2813 46.8762 28.1055 46.8852 27.9375 46.8852ZM23.1328 41.1164C23.1641 41.5871 23.4414 42.0801 23.8711 42.3805C24.2149 42.627 24.7031 42.748 25.1836 42.748C25.6602 42.748 26.1485 42.627 26.4922 42.3805C26.9219 42.0757 27.1992 41.5871 27.2305 41.1164C27.2617 40.6682 27.1719 40.211 26.7461 39.8973C26.5117 39.7224 26.2188 39.6059 25.918 39.5431C25.8047 39.5207 25.5078 39.4625 25.1953 39.4625C24.8867 39.4625 24.5625 39.5163 24.4453 39.5431C24.1446 39.6059 23.8516 39.7224 23.6172 39.8973C23.1953 40.2155 23.1016 40.6682 23.1328 41.1164Z" fill="#2F2F2F"/>
<path id="Vector_6" d="M25.1679 43.4159C24.5664 43.4159 23.9804 43.2456 23.5625 42.9497C22.9883 42.5419 22.5976 41.8605 22.5508 41.1703C22.4843 40.1662 22.9258 39.6239 23.3008 39.3415C23.5898 39.1308 23.9492 38.9739 24.3398 38.8932C24.4961 38.8574 24.8515 38.8036 25.1914 38.8036C25.5586 38.8036 25.8945 38.8663 26.0195 38.8932C26.4101 38.9739 26.7695 39.1308 27.0547 39.3415C27.4336 39.6239 27.875 40.1707 27.8047 41.1747C27.7578 41.8605 27.3711 42.5419 26.7929 42.9542C26.375 43.2501 25.789 43.4204 25.1875 43.4204H25.1679V43.4159ZM25.1953 40.1304C24.9297 40.1304 24.6445 40.1797 24.5547 40.1976C24.3125 40.2514 24.0898 40.341 23.9336 40.4576C23.7812 40.5696 23.6914 40.7131 23.7148 41.0627C23.7343 41.3316 23.914 41.623 24.1797 41.8112C24.4179 41.9816 24.789 42.0802 25.1757 42.0802V42.748L25.1836 42.0802C25.5859 42.0802 25.957 41.9771 26.1914 41.8112C26.4531 41.6275 26.6406 41.3271 26.6562 41.0627C26.6836 40.7131 26.5898 40.5696 26.4375 40.4576C26.2812 40.341 26.0586 40.2514 25.8203 40.1976C25.7539 40.1886 25.4765 40.1304 25.1953 40.1304Z" fill="#2F2F2F"/>
</g>
<path id="Vector_7" d="M25.1875 50.9462C24.082 50.9462 23.0195 50.117 22.5469 48.8126C22.3281 48.2075 21.8867 46.6207 21.8672 46.5535C21.75 46.1367 21.9531 45.6884 22.3164 45.5539C22.6797 45.4195 23.0703 45.6526 23.1875 46.0694C23.3399 46.6163 23.668 47.7682 23.8242 48.1985C24.0664 48.8664 24.707 49.4894 25.4063 49.3326C26.0469 49.1891 26.4688 48.6064 26.7734 47.45C26.8125 47.2931 26.8945 46.939 26.9727 46.6073C27.0313 46.3473 27.0899 46.0963 27.1211 45.9663C27.2266 45.545 27.6016 45.2985 27.9766 45.4195C28.3438 45.5405 28.5586 45.9798 28.4531 46.4011C28.4219 46.5266 28.3672 46.7642 28.3086 47.0152C28.2305 47.3603 28.1445 47.7324 28.0977 47.9072C27.9258 48.5526 27.4102 50.498 25.6719 50.8924C25.5156 50.9283 25.3516 50.9462 25.1875 50.9462Z" fill="#2F2F2F"/>
</g>
</svg>
