<svg width="50" height="59" viewBox="0 0 50 59" fill="none" xmlns="http://www.w3.org/2000/svg">
<g id="noto:dog-face" clip-path="url(#clip0_4_326)">
<path id="Vector" d="M24.9063 9.14167C13.543 8.79835 9.8633 19.1073 9.58205 22.9755C9.3633 25.983 8.26173 36.9833 13.6133 44.3717C16.375 48.1849 20.8008 50.0846 25.4922 49.9565C30.2227 49.8283 34.4961 48.7251 37.3711 44.2847C42.211 36.8093 41.6953 25.6397 41.0391 22.0279C40.4219 18.6679 38.0274 9.53536 24.9063 9.14167Z" fill="#FFEAC8"/>
<path id="Vector_2" d="M47.9378 28.6957C48.3402 32.2709 47.0159 35.6813 43.5277 35.9239C40.3363 36.1482 38.3675 33.7632 38.2113 30.2521C38.0511 26.6541 39.7308 23.3078 42.3988 22.9644C45.2152 22.6028 47.5394 25.1205 47.9378 28.6957ZM17.5003 11.4332C17.5003 11.4332 13.6605 13.1956 12.7347 15.8141C11.4886 19.3389 12.0628 26.3336 12.7347 29.0482C13.3949 31.7124 15.1527 34.4636 17.8675 34.3766C20.5824 34.2897 22.9652 31.067 23.805 26.8601C24.6488 22.6486 24.8324 15.4341 25.0863 14.1432C25.3402 12.8523 25.7816 11.8223 25.7816 11.8223C25.7816 11.8223 22.4105 7.99534 17.5003 11.4332ZM49.6527 10.8747C49.6527 10.8747 54.8597 11.0899 56.1058 11.7353C57.3519 12.3808 58.4886 15.3014 58.3792 19.2107C58.2699 23.1201 58.0511 29.4419 56.3636 31.6254C54.9691 33.4291 52.1488 33.5572 50.5706 31.3233C48.9925 29.0894 48.0042 25.3082 47.637 22.8591C47.2699 20.4101 46.6488 17.2331 46.2425 15.8141C45.8402 14.395 44.848 11.5614 44.3363 10.9159C43.8206 10.275 44.848 9.67078 49.6527 10.8747Z" fill="#D27856"/>
<path id="Vector_3" d="M11.707 10.2129C8.88281 10.0023 4.22656 12.6207 3.27343 15.3262C2.32031 18.0316 2.8789 26.8116 3.67968 29.3751C4.52343 32.0806 6.28125 35.4772 9.32421 32.5566C12.3672 29.6361 13.1719 22.2889 13.4687 19.9268C13.7617 17.5647 14.1641 14.6853 14.6055 14.0856C15.0469 13.4859 15.668 12.6253 15.668 12.6253C15.668 12.6253 15.1914 10.4692 11.707 10.2129ZM40.1562 9.6544C42.8086 9.86955 45.6914 11.0277 46.7539 13.7377C47.8164 16.4431 47.4141 22.8473 47.0117 25.8961C46.6094 28.9448 45.6562 32.1263 43.2734 31.783C40.8906 31.4397 39.6797 27.6585 38.9492 24.0925C38.2148 20.5264 37.4453 16.9604 36.4922 14.3832C35.918 12.8267 33.9258 11.6777 33.9258 11.6777C33.9258 11.6777 34.8047 9.22409 40.1562 9.6544Z" fill="#865B51"/>
<g id="Group 21">
<g id="Group 20">
<g id="Group 19">
<g id="Group 18">
<g id="Group 17">
<g id="Group 16">
<g id="Group 15">
<g id="Group 14">
<path id="Vector_4" d="M19.7266 30.9864C19.5703 32.552 18.8828 33.8155 17.3907 33.6324C16.3321 33.4996 15.6211 32.021 15.7774 30.4508C15.9336 28.8853 16.3985 27.7592 17.6485 27.7866C19.5899 27.8278 19.8828 29.4163 19.7266 30.9864ZM35.0547 30.547C35.1172 32.1217 34.586 33.4676 33.0352 33.6003C31.6875 33.7147 30.9961 32.346 30.9375 30.7713C30.875 29.1966 31.543 27.9331 32.8282 27.7454C34.4961 27.4937 34.9922 28.9723 35.0547 30.547ZM29.3438 38.4847C29.4063 40.0594 28.5 41.5335 25.6758 41.4923C22.9258 41.4511 21.9258 40.1464 21.8633 38.5717C21.8008 36.997 23.3633 35.5824 25.6016 35.5229C28.6836 35.4314 29.2813 36.9054 29.3438 38.4847Z" fill="#2F2F2F"/>
</g>
</g>
</g>
</g>
</g>
</g>
</g>
</g>
<path id="Vector_5" d="M23.1094 44.8432C23.1094 44.8432 23.4414 48.5831 23.7695 49.7001C24.4648 52.0622 27.3945 51.6685 27.9141 49.4437C28.3555 47.5532 28.0625 44.2893 28.0625 44.2893L25.4609 43.8589L23.1094 44.8432Z" fill="#E94B8C"/>
<path id="Vector_6" d="M25.7657 46.0883C25.3087 46.1112 25.3243 46.6056 25.3243 47.7408C25.3243 48.8807 25.379 49.5674 25.8204 49.5445C26.2618 49.5216 26.2071 48.6427 26.2071 47.8278C26.2071 47.013 26.2423 46.0654 25.7657 46.0883Z" fill="#EF87B2"/>
<path id="Vector_7" d="M19.5898 41.2955C19.0625 42.2064 20.0859 43.0121 20.9297 43.6805C21.7734 44.3442 22.7968 45.3559 24.0078 45.333C25.3633 45.3101 25.7304 44.2389 25.7304 44.2389C25.7304 44.2389 26.1718 45.507 28.0937 45.2689C29.1211 45.1408 30.3867 43.7903 30.7695 43.4882C31.5039 42.9068 32.3828 42.179 31.9961 41.5747C31.5547 40.8835 30.6211 41.8128 29.6679 42.3896C28.7148 42.9709 28.3867 43.2502 27.6718 43.2502C26.957 43.2502 26.4609 42.9068 26.4258 41.5106C26.3945 40.3708 26.4062 40.1556 26.4062 40.1556H24.7734C24.7734 40.1556 24.8281 41.3596 24.8281 41.7029C24.8281 42.6047 24.4258 42.9938 23.6562 43.035C22.8867 43.0762 22.0625 42.3255 21.6562 42.0462C21.2578 41.7716 20.0117 40.5676 19.5898 41.2955Z" fill="#2F2F30"/>
</g>
<defs>
<clipPath id="clip0_4_326">
<rect width="50" height="58.5946" fill="white"/>
</clipPath>
</defs>
</svg>
